<svg width="191" height="180" viewBox="0 0 191 180" fill="none" xmlns="http://www.w3.org/2000/svg">
<path d="M0.5 0.5H190.5L190 180C190 180 189.721 172.109 187.5 166C185.5 160.5 183.263 155.695 180 151.5C176.5 147 174 144.5 170 141.5C166 138.5 162.151 136.324 156.5 134.5C154.202 133.758 153.241 133.548 150.5 133C145.5 132 141.5 132 141.5 132C141.5 132 99.2869 132 96.2869 132C93.2869 132 86.927 131.359 81.2869 129.5C77.2869 128.181 71.4369 125.5 66.2869 121.5C61.2869 117.617 53.7059 109.5 50 100.5C46.5 92 46.5 82 46.5 82V50.6726C46.5 50.6726 46.5 47.5 46 43C45.8262 41.4354 45.8087 41.5437 45.5 40C45 37.5 45 37 43.5 33C41.6386 28.0362 38.3154 22.1704 35.2869 18.5C30.9587 13.2544 24.6908 8.20185 19.2871 5.5C10.2871 1 0.5 0.5 0.5 0.5Z" fill="#D9D9D9"/>
</svg>
