<svg width="92" height="23" viewBox="0 0 92 23" fill="none" xmlns="http://www.w3.org/2000/svg">
<path d="M9.56302 1.1338H15.7499L24.4878 22.1761H17.9485L12.4239 8.20423L8.7738 17.3732H13.1145L14.848 22.1761H0.726562L9.56302 1.1338ZM31.774 5.5C32.4081 5.5 33.0987 5.55634 33.7893 5.72535V0.514083H39.2575V21.2465C38.0032 21.8099 35.2973 22.5 32.5914 22.5C27.6869 22.5 23.473 19.7113 23.473 14.1479C23.473 8.58451 27.5319 5.51408 31.774 5.51408V5.5ZM32.4645 17.993C32.9719 17.993 33.3806 17.8944 33.7893 17.7676V10.1338C33.3806 9.97887 32.9719 9.90845 32.4363 9.90845C30.6465 9.90845 28.9835 11.2324 28.9835 14.0211C28.9835 16.8099 30.6747 17.9789 32.4645 17.9789V17.993ZM48.9959 5.5C53.548 5.5 57.4236 8.57042 57.4236 13.9789C57.4236 19.3873 53.5621 22.4577 48.9959 22.4577C44.4297 22.4577 40.5399 19.3873 40.5399 13.9789C40.5399 8.57042 44.3733 5.5 48.9959 5.5ZM48.9959 17.9085C50.5602 17.9085 52.0118 16.6549 52.0118 13.9789C52.0118 11.3028 50.5602 10.0493 48.9959 10.0493C47.4315 10.0493 46.0081 11.3028 46.0081 13.9789C46.0081 16.6549 47.3611 17.9085 48.9959 17.9085ZM58.7343 0.514083H64.2307V5.72535C64.8931 5.59859 65.5836 5.5 66.2742 5.5C70.5444 5.5 74.5046 8.28873 74.5046 13.7535C74.5046 19.5282 70.2908 22.4577 65.3018 22.4577C63.1596 22.4577 60.4255 22.0211 58.7343 21.2324V0.5V0.514083ZM65.4286 17.9648C67.3171 17.9648 69.0365 16.6127 69.0365 13.8239C69.0365 11.2183 67.3453 9.99296 65.5132 9.99296C65.0058 9.99296 64.5971 10.0493 64.2307 10.2183V17.7535C64.5407 17.8803 64.9494 17.9789 65.4286 17.9789V17.9648ZM83.8344 5.5C87.9496 5.5 91.7266 8.1338 91.7266 13.4437C91.7266 14.162 91.6984 14.8521 91.5997 15.5423H81.3539C81.9177 17.4014 83.5525 18.2746 85.596 18.2746C87.259 18.2746 88.7952 17.8662 90.5286 17.1197V21.3028C88.922 22.1197 87.0053 22.4577 85.0323 22.4577C79.8178 22.4577 75.7589 19.3169 75.7589 13.9789C75.7589 8.64085 79.4373 5.5 83.8344 5.5ZM86.5966 12.1197C86.3148 10.331 85.1168 9.61268 83.8907 9.61268C82.6646 9.61268 81.664 10.3732 81.2553 12.1197H86.5966Z" fill="#BFBFBF"/>
</svg>
