<svg width="158" height="29" viewBox="0 0 158 29" fill="none" xmlns="http://www.w3.org/2000/svg">
<g clip-path="url(#clip0_1655_185)">
<path d="M47.8772 6.73749L53.0307 22.079H50.1982L49.1253 18.6789H43.8074L42.7345 22.079H39.9199L45.0734 6.73749H47.8772ZM44.562 16.1493H48.2885L46.3895 10.2232L44.562 16.1493Z" fill="#BFBFBF"/>
<path d="M55.1729 22.0754V6.76959H61.6853C64.3389 6.76959 65.9375 8.39294 65.9375 10.1376V13.3843C65.9375 14.6187 65.0935 15.789 63.6773 16.3634L66.2701 22.0469H63.2839L60.8413 16.6952H58.0089V22.0469H55.1764L55.1729 22.0754ZM58.0339 9.32413V14.1977H61.4707C62.3755 14.1977 63.1301 13.6875 63.1301 12.7706V10.7548C63.1301 9.82361 62.3469 9.32769 61.342 9.32769L58.0339 9.32413Z" fill="#BFBFBF"/>
<path d="M71.5744 22.0754V9.29561H67.7764V6.79816H77.9045V9.29561H74.3961V22.0754H71.5744Z" fill="#BFBFBF"/>
<path d="M81.3086 17.7156V18.7074C81.3086 20.0596 82.5746 21.0836 84.2019 21.0836H86.0115C87.6995 21.0836 88.9977 20.2701 88.9977 18.8573V17.7869C88.9977 15.4429 80.5254 14.9898 80.5254 10.9617V9.57744C80.5254 8.04329 82.0024 6.6911 83.9622 6.6911H85.9829C88.1823 6.6911 89.8131 8.16459 89.8131 9.82005V11.2044H88.5471V10.0627C88.5471 8.79966 87.3705 7.83636 85.8935 7.83636H84.1446C82.85 7.83636 81.795 8.67836 81.795 9.79151V10.9047C81.795 13.9123 90.2673 14.3048 90.2673 17.6121V19.0856C90.2673 21.0086 88.4791 22.2145 86.108 22.2145H84.1482C81.7664 22.2145 80.0176 20.6804 80.0176 18.9072V17.7334L81.3086 17.7156Z" fill="#BFBFBF"/>
<path d="M96.6226 22.0754V7.9113H92.3311V6.79816H101.987V7.9113H97.8886V22.0754H96.6226Z" fill="#BFBFBF"/>
<path d="M108.804 6.70892L114.2 22.0754H112.934L111.232 17.1733H105.095L103.407 22.0754H102.112L107.538 6.70892H108.804ZM105.488 16.0316H110.824L108.171 8.33227L105.488 16.0316Z" fill="#BFBFBF"/>
<path d="M118.692 22.0754V7.9113H114.4V6.79816H124.056V7.9113H119.958V22.0754H118.692Z" fill="#BFBFBF"/>
<path d="M126.893 22.0754V6.79816H128.159V22.0754H126.893Z" fill="#BFBFBF"/>
<path d="M136.026 22.1967C133.916 22.1967 132.407 20.6625 132.407 18.8894V9.96988C132.407 8.18599 133.945 6.66254 136.026 6.66254H139.07C141.151 6.66254 142.646 8.19669 142.646 9.96988V18.8894C142.646 20.6732 141.141 22.1967 139.07 22.1967H136.026ZM138.952 21.055C139.27 21.0631 139.586 21.0076 139.882 20.8918C140.178 20.7761 140.448 20.6023 140.675 20.3808C140.903 20.1594 141.084 19.8947 141.208 19.6024C141.331 19.3101 141.395 18.9961 141.394 18.6789V10.2018C141.395 9.88458 141.331 9.57056 141.208 9.27824C141.084 8.98593 140.903 8.72124 140.675 8.49978C140.448 8.27832 140.178 8.10459 139.882 7.98881C139.586 7.87302 139.27 7.81754 138.952 7.82564H136.091C135.773 7.81754 135.457 7.87302 135.161 7.98881C134.865 8.10459 134.595 8.27832 134.367 8.49978C134.14 8.72124 133.959 8.98593 133.835 9.27824C133.712 9.57056 133.648 9.88458 133.648 10.2018V18.7145C133.648 19.0317 133.712 19.3458 133.835 19.6381C133.959 19.9304 134.14 20.1951 134.367 20.4165C134.595 20.638 134.865 20.8117 135.161 20.9275C135.457 21.0433 135.773 21.0988 136.091 21.0907H138.952V21.055Z" fill="#BFBFBF"/>
<path d="M146.909 22.0754V6.79813H148.236L155.936 19.8348V6.76959H157.202V22.0469H155.875L148.175 8.99589V22.0469H146.909V22.0754Z" fill="#BFBFBF"/>
<path d="M0.1875 22.0754L2.86973 26.7135C3.13608 27.2446 3.54406 27.6921 4.04882 28.0068C4.55359 28.3215 5.13557 28.4913 5.73078 28.4974H23.6123L19.9359 22.0754H0.1875Z" fill="#BFBFBF"/>
<path d="M32.0809 22.1075C32.0824 21.4889 31.9048 20.8831 31.5695 20.3628L21.0801 2.19924C20.8101 1.68273 20.4032 1.24998 19.9038 0.948042C19.4045 0.646105 18.8316 0.486536 18.2477 0.486694H12.6973L28.8872 28.4546L31.4479 24.0341C31.9307 23.1885 32.0809 22.8282 32.0809 22.1075Z" fill="#BFBFBF"/>
<path d="M17.2783 17.5051L10.0435 5.01782L2.80859 17.5051H17.2783Z" fill="#BFBFBF"/>
</g>
<defs>
<clipPath id="clip0_1655_185">
<rect width="157" height="28" fill="white" transform="translate(0.1875 0.483154)"/>
</clipPath>
</defs>
</svg>
