<svg width="21" height="19" viewBox="0 0 21 19" fill="none" xmlns="http://www.w3.org/2000/svg">
<path d="M0 14.6439L1.7236 17.79C1.89475 18.1502 2.15692 18.4537 2.48128 18.6672C2.80564 18.8807 3.17962 18.9959 3.5621 19H15.0527L12.6903 14.6439H0Z" fill="white"/>
<path d="M20.4949 14.6657C20.4959 14.2462 20.3818 13.8352 20.1663 13.4823L13.4259 1.16165C13.2523 0.811292 12.9909 0.517748 12.67 0.312939C12.3491 0.10813 11.981 -0.000107202 11.6058 7.96733e-08H8.03906L18.4427 18.9711L20.0882 15.9726C20.3984 15.399 20.4949 15.1546 20.4949 14.6657Z" fill="white"/>
<path d="M10.9818 11.5318L6.33271 3.06152L1.68359 11.5318H10.9818Z" fill="white"/>
</svg>
