<svg width="113" height="29" viewBox="0 0 113 29" fill="none" xmlns="http://www.w3.org/2000/svg">
<path d="M18.4629 16.2389C18.5271 15.1008 19.0877 14.0981 19.9334 13.3874C20.7627 12.6892 21.879 12.2625 23.0971 12.2625C24.3139 12.2625 25.4302 12.6892 26.2601 13.3874C27.1052 14.0981 27.6658 15.1008 27.7306 16.2377C27.7947 17.4071 27.3219 18.4935 26.4926 19.2987C25.6469 20.1179 24.444 20.6319 23.0971 20.6319C21.7501 20.6319 20.5448 20.1179 19.6997 19.2987C18.8697 18.4935 18.3982 17.4071 18.4629 16.2389Z" fill="#BFBFBF"/>
<path d="M11.0838 18.5386C11.0917 18.984 11.2345 19.8495 11.4488 20.5253C11.8992 21.9559 12.6632 23.2794 13.7262 24.4458C14.8171 25.6447 16.1604 26.6076 17.712 27.2913C19.3429 28.0093 21.11 28.3753 22.9454 28.3723C24.7472 28.375 26.5293 28.0005 28.1759 27.2733C29.7274 26.5829 31.0695 25.6158 32.1586 24.4163C33.221 23.2451 33.9838 21.9192 34.4354 20.4886C34.6624 19.7658 34.8059 19.0321 34.8634 18.2961C34.9197 17.5698 34.8959 16.8397 34.7926 16.1186C34.5924 14.7149 34.0976 13.3687 33.3403 12.1674C32.639 11.0497 31.7418 10.0662 30.6912 9.26349L30.6936 9.26168L19.9719 1.07711C19.963 1.06949 19.9537 1.06228 19.944 1.05546C19.2406 0.518604 18.0577 0.520413 17.284 1.05847C16.5019 1.60254 16.4123 2.5023 17.1084 3.06984L17.1054 3.07285L21.5773 6.68816L7.94737 6.70262H7.92921C6.80261 6.70382 5.71961 7.43868 5.50531 8.36733C5.28495 9.31344 6.05013 10.0983 7.22153 10.1025L7.21972 10.1067L14.1282 10.0934L1.80043 19.501L1.75321 19.5359C0.590288 20.4212 0.214361 21.8933 0.94686 22.825C1.69026 23.7723 3.27088 23.7741 4.44591 22.8304L11.174 17.356C11.174 17.356 11.0759 18.095 11.0838 18.5386ZM28.3726 21.0134C26.9863 22.4175 25.0455 23.2138 22.9454 23.218C20.8424 23.2216 18.9016 22.4326 17.5153 21.0309C16.8608 20.3766 16.3554 19.59 16.0333 18.7246C15.7315 17.9007 15.6153 17.0209 15.6931 16.1475C15.7664 15.2958 16.0195 14.4692 16.4359 13.7214C16.8547 12.9725 17.4146 12.3106 18.0849 11.772C19.4325 10.6803 21.1481 10.0892 22.9424 10.0868C24.7386 10.0844 26.453 10.67 27.8017 11.7582C28.4708 12.2952 29.03 12.9549 29.4489 13.7015C29.8662 14.4487 30.1204 15.275 30.1948 16.1264C30.2709 16.9993 30.1543 17.8782 29.8533 18.7017C29.5323 19.569 29.0273 20.3574 28.3726 21.0134Z" fill="#BFBFBF"/>
<path d="M96.917 16.2203C97.0205 15.072 97.9134 14.3437 99.2773 14.3437C100.643 14.3437 101.535 15.072 101.639 16.2203H96.917ZM101.499 19.0556C101.15 19.9067 100.326 20.4104 99.2083 20.4104C97.8081 20.4104 96.8655 19.5413 96.8274 18.1685H104.877V17.7647C104.877 14.3257 102.847 12.3931 99.2083 12.3931C95.6754 12.3931 93.539 14.3437 93.539 17.403C93.539 20.4808 95.7087 22.4284 99.2083 22.4284C101.308 22.4284 102.937 21.7128 103.941 20.4549L101.499 19.0556ZM61.2007 16.2257C61.3072 15.0774 62.2002 14.3492 63.5653 14.3492C64.9286 14.3492 65.8209 15.0774 65.9256 16.2257H61.2007ZM65.7858 19.0611C65.4359 19.9145 64.6132 20.4182 63.4926 20.4182C62.0948 20.4182 61.1498 19.5467 61.1129 18.1733H69.1607V17.7719C69.1607 14.3311 67.1309 12.398 63.4926 12.398C59.9579 12.398 57.8257 14.3492 57.8257 17.4084C57.8257 20.4862 59.9942 22.4338 63.4926 22.4338C65.5921 22.4338 67.2217 21.7206 68.2272 20.461L65.7858 19.0611ZM54.202 10.3138H57.1047V22.1203H54.202V10.3138ZM69.8829 13.4506H72.802V14.1536C73.8354 13.057 75.0764 12.5027 76.476 12.5027C78.0881 12.5027 79.3086 13.057 79.9387 14.0007C80.4648 14.7801 80.4993 15.7208 80.4993 16.957V22.1203H77.576V17.5835C77.576 15.7009 77.1952 14.8318 75.5329 14.8318C73.853 14.8318 72.802 15.8267 72.802 17.4968V22.1203H69.8829V13.4506ZM89.9001 17.5492C89.9001 19.1652 88.8141 20.225 87.1336 20.225C85.4519 20.225 84.3658 19.2013 84.3658 17.5679C84.3658 15.9104 85.4373 14.8872 87.1336 14.8872C88.8141 14.8872 89.9001 15.9284 89.9001 17.5492ZM89.9001 13.8436C89.1622 13.057 88.0943 12.6255 86.6099 12.6255C83.4075 12.6255 81.2209 14.5887 81.2209 17.5312C81.2209 20.4158 83.3924 22.4338 86.5573 22.4338C88.0084 22.4338 89.0738 22.0691 89.9001 21.2512V22.1203H92.821V9.56506L89.9001 10.3138V13.8436ZM47.5671 14.8872C49.2646 14.8872 50.3319 15.9104 50.3319 17.5679C50.3319 19.2013 49.2476 20.225 47.5671 20.225C45.8878 20.225 44.803 19.1652 44.803 17.5492C44.803 15.9284 45.8878 14.8872 47.5671 14.8872ZM44.803 10.3138L41.8809 9.56506V22.1203H44.803V21.2512C45.6251 22.0691 46.6924 22.4338 48.1446 22.4338C51.3113 22.4338 53.4798 20.4158 53.4798 17.5312C53.4798 14.5887 51.2926 12.6255 48.092 12.6255C46.6046 12.6255 45.5373 13.057 44.803 13.8436V10.3138ZM105.597 22.1203V13.4506H108.518V13.9862C109.393 12.939 110.319 12.4178 111.371 12.4178C111.58 12.4178 111.843 12.4515 112.192 12.4858V14.9576C111.911 14.9209 111.597 14.9209 111.264 14.9209C109.566 14.9209 108.518 16.0343 108.518 17.9278V22.1203H105.597Z" fill="#BFBFBF"/>
</svg>
