<svg width="28" height="28" viewBox="0 0 28 28" fill="none" xmlns="http://www.w3.org/2000/svg">
<path d="M22.1667 4.66665L19.8333 4.66665L19.8333 2.33331L17.5 2.33331L17.5 4.66665L10.5 4.66665L10.5 2.33331L8.16667 2.33331L8.16667 4.66665L5.83333 4.66665C4.55 4.66665 3.5 5.71665 3.5 6.99998L3.5 23.3333C3.5 24.6166 4.55 25.6666 5.83333 25.6666L22.1667 25.6666C23.45 25.6666 24.5 24.6166 24.5 23.3333L24.5 6.99998C24.5 5.71665 23.45 4.66665 22.1667 4.66665ZM5.83333 23.3333L5.83333 9.33331L22.1667 9.33331L22.1667 6.99998L22.1667 23.3333L5.83333 23.3333Z" fill="white"/>
<path d="M8.1665 12.8333L10.4998 12.8333L10.4998 15.1666L8.1665 15.1666L8.1665 12.8333Z" fill="white"/>
<path d="M12.8335 12.8333L15.1668 12.8333L15.1668 15.1666L12.8335 15.1666L12.8335 12.8333Z" fill="white"/>
<path d="M17.5 12.8333L19.8333 12.8333L19.8333 15.1666L17.5 15.1666L17.5 12.8333Z" fill="white"/>
<path d="M8.1665 17.5L10.4998 17.5L10.4998 19.8333L8.1665 19.8333L8.1665 17.5Z" fill="white"/>
<path d="M12.8335 17.5L15.1668 17.5L15.1668 19.8333L12.8335 19.8333L12.8335 17.5Z" fill="white"/>
<path d="M17.5 17.5L19.8333 17.5L19.8333 19.8333L17.5 19.8333L17.5 17.5Z" fill="white"/>
</svg>
