<svg width="127" height="29" viewBox="0 0 127 29" fill="none" xmlns="http://www.w3.org/2000/svg">
<path d="M26.1828 21.6772C26.3695 21.5714 26.5204 21.4201 26.6248 21.2418L22.5875 18.9512L14.1875 23.7172V28.3023C14.3929 28.3023 14.5984 28.25 14.7829 28.1453L26.1828 21.6772Z" fill="#BFBFBF"/>
<path d="M13.5919 28.1453C13.7763 28.25 13.9818 28.3023 14.1872 28.3023V23.7172L5.78726 18.9512L1.75 21.2418C1.8544 21.4201 2.00532 21.5714 2.1919 21.6772L13.5919 28.1453Z" fill="#BFBFBF"/>
<path d="M1.75063 21.2419C1.64581 21.063 1.58789 20.857 1.58789 20.6428V8.32356C1.58789 8.10936 1.64581 7.90335 1.75063 7.72443L5.78789 10.0151V18.9512L1.75063 21.2419Z" fill="url(#paint0_linear_1662_256)"/>
<path d="M5.78726 10.0151L17.6579 3.27991C17.9804 3.09694 17.9804 2.63527 17.6579 2.45231L14.782 0.820547C14.4132 0.611612 13.9606 0.611738 13.5919 0.820927L2.1919 7.28901C2.00532 7.39487 1.8544 7.54622 1.75 7.72437L5.78726 10.0151Z" fill="#BFBFBF"/>
<path d="M26.6251 7.72443L22.5879 10.0151V18.9512L26.6251 21.2419C26.73 21.063 26.7879 20.857 26.7879 20.6428V8.32356C26.7879 8.10936 26.73 7.90335 26.6251 7.72443Z" fill="url(#paint1_linear_1662_256)"/>
<path d="M26.6244 7.72435C26.5202 7.54655 26.3697 7.39548 26.1837 7.28966L23.1819 5.58648L23.1786 5.58464C22.8104 5.37754 22.3594 5.37829 21.9918 5.58686L10.7165 11.9842C10.394 12.1672 10.394 12.6288 10.7165 12.8118L13.6033 14.4497C13.9668 14.6507 14.4093 14.6504 14.7726 14.4488L26.6244 7.72435Z" fill="#BFBFBF"/>
<path d="M41.532 20.288C37.956 20.288 35.316 17.6 35.316 14.072C35.316 10.592 37.932 7.952 41.46 7.952C43.404 7.952 45.012 8.768 46.02 10.064C46.164 10.232 46.116 10.424 45.972 10.568L44.532 11.984C44.34 12.176 44.076 12.152 43.908 11.984C43.26 11.336 42.564 11 41.604 11C39.732 11 38.508 12.344 38.508 14.072C38.508 15.8 39.732 17.24 41.676 17.24C42.588 17.24 43.284 16.904 43.932 16.256C44.1 16.088 44.364 16.064 44.556 16.256L45.996 17.672C46.14 17.816 46.188 18.008 46.044 18.176C45.036 19.472 43.428 20.288 41.532 20.288ZM52.7166 24.92C50.9646 24.92 49.2846 24.44 48.1326 23.576C47.8926 23.408 47.8686 23.096 47.9886 22.88L48.6846 21.56C48.8046 21.32 49.0206 21.224 49.2846 21.368C50.3166 21.944 51.3726 22.232 52.4046 22.232C54.0606 22.232 55.7646 21.512 55.7646 19.328V18.056C55.0206 19.112 53.7966 19.76 52.1166 19.76C48.8046 19.76 46.5726 17.336 46.5726 13.856C46.5726 10.4 48.8046 7.952 52.1166 7.952C53.8446 7.952 55.0446 8.576 55.7886 9.68L55.8366 8.6C55.8366 8.384 56.0046 8.24 56.2206 8.24H58.5726C58.7886 8.24 58.9326 8.384 58.9326 8.6V19.352C58.9326 23.576 55.6206 24.92 52.7166 24.92ZM49.8126 13.856C49.8126 15.656 51.0606 16.784 52.7646 16.784C54.4446 16.784 55.6446 15.656 55.6446 13.856C55.6446 12.056 54.4446 10.928 52.7646 10.928C51.0606 10.928 49.8126 12.08 49.8126 13.856ZM65.7341 20.144C63.8621 20.144 62.1821 19.28 62.1821 16.712V10.808H60.6941C60.4781 10.808 60.3341 10.664 60.3341 10.448V8.6C60.3341 8.384 60.4781 8.24 60.6941 8.24H62.1821V5.48C62.1821 5.264 62.3261 5.12 62.5421 5.12H65.1581C65.3741 5.12 65.5181 5.264 65.5181 5.48V8.24H67.3661C67.5821 8.24 67.7261 8.384 67.7261 8.6V10.448C67.7261 10.664 67.5821 10.808 67.3661 10.808H65.5181V16.352C65.5181 17.048 65.9261 17.384 66.5501 17.384C66.7661 17.384 67.0061 17.384 67.2941 17.36C67.5581 17.336 67.7261 17.456 67.7261 17.696V19.448C67.7261 20 66.5261 20.144 65.7341 20.144ZM69.4832 20C69.2672 20 69.1232 19.856 69.1232 19.64V8.6C69.1232 8.384 69.2672 8.24 69.4832 8.24H71.9792C72.1952 8.24 72.3152 8.336 72.3392 8.624L72.4352 10.136C72.8432 8.888 73.5872 7.952 74.9792 7.952C75.5312 7.952 75.8672 8.096 76.0592 8.24C76.2272 8.36 76.2752 8.504 76.2752 8.72V10.832C76.2752 11.12 76.1072 11.192 75.7952 11.12C75.5312 11.048 75.2672 11 74.9312 11C73.2992 11 72.4352 12.08 72.4352 13.76V19.64C72.4352 19.856 72.2912 20 72.0752 20H69.4832ZM82.3483 20.288C79.0363 20.288 76.7563 17.624 76.7563 14.12C76.7563 10.64 79.0363 7.952 82.3483 7.952C84.1243 7.952 85.3963 8.672 86.1883 9.896L86.2363 8.6C86.2363 8.384 86.3803 8.24 86.5963 8.24H88.9483C89.1643 8.24 89.3083 8.384 89.3083 8.6V19.64C89.3083 19.856 89.1403 20 88.9243 20H86.5963C86.3803 20 86.2363 19.856 86.2363 19.64L86.1883 18.344C85.3723 19.544 84.1003 20.288 82.3483 20.288ZM79.9963 14.12C79.9963 16.016 81.2923 17.264 83.0443 17.264C84.7963 17.264 86.0203 16.016 86.0203 14.12C86.0203 12.224 84.7963 10.976 83.0443 10.976C81.2923 10.976 79.9963 12.248 79.9963 14.12ZM96.4408 20.288C93.1288 20.288 90.8488 17.624 90.8488 14.12C90.8488 10.64 93.1288 7.952 96.4408 7.952C98.0728 7.952 99.2728 8.552 100.065 9.608V3.2C100.065 2.984 100.209 2.84 100.425 2.84H103.041C103.257 2.84 103.401 2.984 103.401 3.2V19.64C103.401 19.856 103.233 20 103.017 20H100.689C100.473 20 100.329 19.856 100.329 19.64L100.281 18.344C99.4648 19.544 98.1928 20.288 96.4408 20.288ZM94.0888 14.12C94.0888 16.016 95.3848 17.264 97.1368 17.264C98.8888 17.264 100.113 16.016 100.113 14.12C100.113 12.224 98.8888 10.976 97.1368 10.976C95.3848 10.976 94.0888 12.248 94.0888 14.12ZM111.397 20.288C107.533 20.288 104.941 17.624 104.941 14.072C104.941 10.616 107.365 7.952 110.989 7.952C114.565 7.952 116.629 10.592 116.629 13.568C116.629 14.72 116.365 15.368 115.333 15.368H108.181C108.541 16.856 109.765 17.672 111.661 17.672C112.573 17.672 113.437 17.504 114.397 16.952C114.565 16.856 114.685 16.88 114.805 17.048L115.693 18.272C115.813 18.44 115.789 18.608 115.573 18.8C114.565 19.808 113.053 20.288 111.397 20.288ZM108.133 13.04H113.677C113.485 11.48 112.429 10.688 111.013 10.688C109.549 10.688 108.421 11.48 108.133 13.04ZM118.494 20C118.278 20 118.134 19.856 118.134 19.64V8.6C118.134 8.384 118.278 8.24 118.494 8.24H120.99C121.206 8.24 121.326 8.336 121.35 8.624L121.446 10.136C121.854 8.888 122.598 7.952 123.99 7.952C124.542 7.952 124.878 8.096 125.07 8.24C125.238 8.36 125.286 8.504 125.286 8.72V10.832C125.286 11.12 125.118 11.192 124.806 11.12C124.542 11.048 124.278 11 123.942 11C122.31 11 121.446 12.08 121.446 13.76V19.64C121.446 19.856 121.302 20 121.086 20H118.494Z" fill="#BFBFBF"/>
<defs>
<linearGradient id="paint0_linear_1662_256" x1="8.18791" y1="7.63196" x2="-0.722487" y2="21.3921" gradientUnits="userSpaceOnUse">
<stop stop-color="#BFBFBF"/>
<stop offset="0.399305" stop-color="#BFBFBF"/>
</linearGradient>
<linearGradient id="paint1_linear_1662_256" x1="29.1879" y1="7.63196" x2="20.2775" y2="21.3921" gradientUnits="userSpaceOnUse">
<stop offset="0.399305" stop-color="#BFBFBF"/>
</linearGradient>
</defs>
</svg>
