<svg width="18" height="18" viewBox="0 0 18 18" fill="none" xmlns="http://www.w3.org/2000/svg">
<path d="M5.0127 1.5H10.9294C12.7962 1.5 13.7296 1.5 14.4427 1.86331C15.0699 2.18289 15.5798 2.69282 15.8994 3.32003C16.2627 4.03307 16.2627 4.96649 16.2627 6.83333V12.75M3.92936 16.5H10.6794C11.6128 16.5 12.0795 16.5 12.436 16.3183C12.7496 16.1586 13.0046 15.9036 13.1644 15.59C13.346 15.2335 13.346 14.7668 13.346 13.8333V7.08333C13.346 6.14991 13.346 5.6832 13.1644 5.32668C13.0046 5.01308 12.7496 4.75811 12.436 4.59832C12.0795 4.41667 11.6128 4.41667 10.6794 4.41667H3.92936C2.99594 4.41667 2.52923 4.41667 2.17271 4.59832C1.85911 4.75811 1.60414 5.01308 1.44435 5.32668C1.2627 5.6832 1.2627 6.14991 1.2627 7.08333V13.8333C1.2627 14.7668 1.2627 15.2335 1.44435 15.59C1.60414 15.9036 1.85911 16.1586 2.17271 16.3183C2.52923 16.5 2.99594 16.5 3.92936 16.5Z" stroke="white" stroke-width="1.5" stroke-linecap="round" stroke-linejoin="round"/>
</svg>
