<svg width="31" height="31" viewBox="0 0 31 31" fill="none" xmlns="http://www.w3.org/2000/svg">
<path d="M4.35156 20.3511C4.35156 20.7761 4.57656 21.1886 4.93906 21.4136L14.9391 27.6636C15.1382 27.7864 15.3676 27.8514 15.6016 27.8514C15.8355 27.8514 16.0649 27.7864 16.2641 27.6636L26.2641 21.4136C26.6266 21.1886 26.8516 20.7886 26.8516 20.3511L26.8516 10.3511C26.8516 9.92608 26.6266 9.51358 26.2641 9.28858L16.2641 3.03857C15.8641 2.78857 15.3391 2.78857 14.9391 3.03857L4.93906 9.28858C4.57656 9.51358 4.35156 9.91358 4.35156 10.3511L4.35156 20.3511ZM6.85156 12.1886L14.3516 16.6886L14.3516 24.3511L6.85156 19.6636L6.85156 12.1886ZM16.8516 24.3511L16.8516 16.6886L24.3516 12.1886L24.3516 19.6636L16.8516 24.3511ZM15.6016 5.57607L22.9016 10.1386L15.6016 14.5136L8.30156 10.1386L15.6016 5.57607Z" fill="white"/>
</svg>
