<svg width="31" height="30" viewBox="0 0 31 30" fill="none" xmlns="http://www.w3.org/2000/svg">
<path d="M25.875 9.75C25.4 9.125 24.6625 8.75 23.875 8.75L20.75 8.75L20.75 7.5C20.75 6.125 19.625 5 18.25 5L7 5C5.625 5 4.5 6.125 4.5 7.5L4.5 20C4.5 21.375 5.625 22.5 7 22.5C7 24.5625 8.6875 26.25 10.75 26.25C12.8125 26.25 14.5 24.5625 14.5 22.5L19.5 22.5C19.5 24.5625 21.1875 26.25 23.25 26.25C25.3125 26.25 27 24.5625 27 22.5C28.375 22.5 29.5 21.375 29.5 20L29.5 15.4125C29.5 14.875 29.325 14.3375 29 13.9125L25.875 9.75ZM23.875 11.25L25.75 13.75L20.75 13.75L20.75 11.25L23.875 11.25ZM10.75 23.75C10.0625 23.75 9.5 23.1875 9.5 22.5C9.5 22.2875 9.5625 22.0625 9.6625 21.875C10.125 21.0875 11.3625 21.0875 11.825 21.875C11.9375 22.0625 11.9875 22.275 11.9875 22.4875C11.9875 23.175 11.425 23.7375 10.7375 23.7375L10.75 23.75ZM13.5375 20C13.5375 20 13.475 19.9375 13.4375 19.9125C13.3625 19.8375 13.2875 19.775 13.225 19.7125C13.075 19.575 12.9125 19.45 12.75 19.35C12.6625 19.2875 12.575 19.2375 12.475 19.1875C12.2875 19.0875 12.1 19.0125 11.9125 18.95C11.825 18.925 11.7375 18.8875 11.65 18.8625C11.3625 18.7875 11.0625 18.75 10.75 18.75C10.4375 18.75 10.1375 18.8 9.85 18.8625C9.7625 18.8875 9.675 18.925 9.5875 18.95C9.3875 19.0125 9.2 19.0875 9.025 19.1875C8.9375 19.2375 8.8375 19.2875 8.75 19.35C8.5875 19.4625 8.425 19.575 8.275 19.7125C8.2 19.775 8.125 19.8375 8.05 19.9125C8.025 19.95 7.9875 19.9625 7.95 20L6.9875 20L6.9875 7.5L18.2375 7.5L18.2375 10L18.2375 20L13.525 20L13.5375 20ZM23.25 23.75C22.5625 23.75 22 23.1875 22 22.5C22 22.2875 22.0625 22.0625 22.1625 21.875C22.625 21.0875 23.8625 21.0875 24.325 21.875C24.4375 22.0625 24.4875 22.275 24.4875 22.4875C24.4875 23.175 23.925 23.7375 23.2375 23.7375L23.25 23.75ZM27 20L26.0375 20C26.0375 20 25.975 19.9375 25.9375 19.9125C25.8625 19.8375 25.7875 19.775 25.725 19.7125C25.575 19.575 25.4125 19.45 25.25 19.35C25.1625 19.2875 25.075 19.2375 24.975 19.1875C24.7875 19.0875 24.6 19.0125 24.4125 18.95C24.325 18.925 24.2375 18.8875 24.15 18.8625C23.8625 18.7875 23.5625 18.75 23.25 18.75C22.9375 18.75 22.6625 18.8 22.375 18.8625C22.3 18.875 22.225 18.9 22.15 18.925C21.925 19 21.7 19.0875 21.5 19.2C21.45 19.225 21.4 19.25 21.35 19.275C21.1375 19.4 20.9375 19.5375 20.75 19.7125L20.75 16.2625L27 16.2625L27 20.0125L27 20Z" fill="white"/>
</svg>
