<svg width="27" height="27" viewBox="0 0 27 27" fill="none" xmlns="http://www.w3.org/2000/svg">
<path d="M22.5898 6.08451L13.284 6.08451L11.7565 4.55701C11.3448 4.14535 10.8032 3.91785 10.229 3.91785L5.25651 3.91785C4.06484 3.91785 3.08984 4.89285 3.08984 6.08451L3.08984 21.2512C3.08984 22.4428 4.06484 23.4178 5.25651 23.4178L22.5898 23.4178C23.7815 23.4178 24.7565 22.4428 24.7565 21.2512L24.7565 8.25118C24.7565 7.05951 23.7815 6.08451 22.5898 6.08451ZM22.5898 21.2512L5.25651 21.2512L5.25651 12.5845L22.5898 12.5845L22.5898 21.2512ZM22.5898 10.4178L5.25651 10.4178L5.25651 8.25118L22.5898 8.25118L22.5898 10.4178Z" fill="white"/>
</svg>
