<svg width="28" height="28" viewBox="0 0 28 28" fill="none" xmlns="http://www.w3.org/2000/svg">
<path d="M14 3C11.0826 3 8.28473 4.15893 6.22183 6.22183C4.15893 8.28473 3 11.0826 3 14C3 16.9174 4.15893 19.7153 6.22183 21.7782C8.28473 23.8411 11.0826 25 14 25C16.9174 25 19.7153 23.8411 21.7782 21.7782C23.8411 19.7153 25 16.9174 25 14C25 11.0826 23.8411 8.28473 21.7782 6.22183C19.7153 4.15893 16.9174 3 14 3ZM13.9936 7.69333C18.1003 7.69333 19.489 10.4663 19.5522 12.042H16.5832C16.5199 11.1602 15.7609 9.8365 13.9285 9.8365C11.9705 9.8365 10.7073 11.5387 10.7073 13.6187C10.7073 15.6995 11.9705 17.3999 13.9285 17.3999C15.6977 17.3999 16.4567 16.0139 16.7729 14.627H13.9285V13.4922H19.8951V19.2919H17.278V15.6353C17.0883 16.959 16.2678 19.544 13.0457 19.544C9.82275 19.544 7.92708 16.959 7.92708 13.7452C7.92708 10.4039 10.0134 7.69333 13.9936 7.69333Z" fill="white"/>
</svg>
