<svg width="106" height="29" viewBox="0 0 106 29" fill="none" xmlns="http://www.w3.org/2000/svg">
<path d="M105.188 21.6323H103.313V20.2778C103.307 18.5328 103.313 16.7879 103.295 15.0429C103.277 13.6765 102.248 12.4462 100.911 12.1682C99.0776 11.7837 97.2144 13.2684 97.2085 15.1494C97.2025 17.1901 97.2144 19.2308 97.2203 21.2715V21.6383H95.3984V10.8018H97.2025V11.3992C97.7941 10.8728 98.421 10.5475 99.1309 10.37C101.923 9.6661 104.845 11.7186 105.129 14.5815C105.135 14.6644 105.164 14.7531 105.182 14.8359C105.188 17.0955 105.188 19.3669 105.188 21.6323Z" fill="#BFBFBF"/>
<path d="M34.314 20.4196V25.826H32.504C32.4981 25.7491 32.4863 25.6722 32.4863 25.5953C32.4863 22.4484 32.4745 19.3075 32.4922 16.1607C32.5099 13.3155 34.5033 10.914 37.2834 10.3521C40.6255 9.67776 43.8965 12.026 44.3342 15.4095C44.766 18.7456 42.471 21.7386 39.123 22.1409C37.3662 22.3479 35.852 21.7445 34.5507 20.5734C34.4915 20.5201 34.4619 20.4255 34.4146 20.3486C34.3791 20.3722 34.3495 20.3959 34.314 20.4196ZM38.4487 20.3545C40.7378 20.3486 42.5656 18.5031 42.5656 16.208C42.5597 13.9189 40.7083 12.0675 38.431 12.0793C36.1477 12.0911 34.314 13.9366 34.32 16.2317C34.314 18.5149 36.1596 20.3604 38.4487 20.3545Z" fill="#BFBFBF"/>
<path d="M72.5199 18.6334C73.3953 19.9702 75.2467 20.6327 76.8852 20.1949C77.8849 19.9288 78.6834 19.355 79.2572 18.4973C79.8309 17.6396 80.0439 16.6814 79.9197 15.6344H81.7297C82.055 17.9236 80.6886 20.9107 77.6246 21.8867C74.7262 22.8094 71.5971 21.3898 70.3727 18.6038C69.1424 15.8059 70.2248 12.5231 72.8925 11.0029C75.6549 9.42948 78.7485 10.4587 80.1917 12.18C77.6364 14.3272 75.087 16.4744 72.5199 18.6334ZM71.7509 16.8884C73.5905 15.3446 75.3769 13.8421 77.181 12.322C75.8027 11.7482 74.046 12.1327 72.928 13.2506C71.9461 14.2384 71.5735 15.4392 71.7509 16.8884Z" fill="#BFBFBF"/>
<path d="M56.9221 21.6379H55.0943V20.52C54.9997 20.5969 54.9464 20.6383 54.8991 20.6797C51.5098 23.6136 46.2867 21.981 45.1865 17.6453C44.175 13.6466 47.4638 9.84324 51.563 10.2573C54.5797 10.5649 56.8866 13.0788 56.9161 16.1073C56.9339 17.8819 56.9221 19.6564 56.9221 21.4309V21.6379ZM46.8368 16.1901C46.8309 18.4615 48.6705 20.3248 50.9301 20.3366C53.2133 20.3425 55.0884 18.5148 55.0943 16.267C55.1002 13.9187 53.2784 12.0614 50.9774 12.0614C48.6942 12.0496 46.8427 13.901 46.8368 16.1901Z" fill="#BFBFBF"/>
<path d="M82.4336 16.1902C82.4395 12.9014 85.1131 10.2278 88.3901 10.2278C91.6789 10.2278 94.3643 12.931 94.3466 16.2198C94.3289 19.5145 91.6611 22.1704 88.3724 22.1644C85.0954 22.1585 82.4277 19.479 82.4336 16.1902ZM88.3842 20.3308C90.6674 20.3308 92.5248 18.4853 92.5248 16.202C92.5307 13.9247 90.6733 12.0555 88.4019 12.0496C86.1246 12.0437 84.2614 13.9011 84.2554 16.1784C84.2554 18.4675 86.1069 20.3308 88.3842 20.3308Z" fill="#BFBFBF"/>
<path d="M57.502 10.7661H58.5489V6.57825H60.3826V10.7661H63.1154V12.5939H60.3885V21.6322H58.5667V21.2773C58.5667 18.4972 58.5608 15.7171 58.5726 12.937C58.5726 12.6708 58.5075 12.5643 58.2295 12.5939C57.9988 12.6176 57.7622 12.5998 57.5079 12.5998C57.502 11.9846 57.502 11.399 57.502 10.7661Z" fill="#BFBFBF"/>
<path d="M65.8836 12.3513C66.7531 11.5705 67.7469 11.0322 68.8944 10.8311C69.2966 10.7602 69.7107 10.7542 70.1484 10.7128V12.3927C70.1484 12.5997 69.9946 12.5643 69.8763 12.5643C68.9654 12.5761 68.1491 12.8659 67.4452 13.4279C66.4219 14.2382 65.8659 15.3029 65.8481 16.6161C65.8304 18.1718 65.8422 19.7333 65.8422 21.289V21.6321H64.0381V10.7897H65.8067V12.3158C65.8363 12.3276 65.8599 12.3395 65.8836 12.3513Z" fill="#BFBFBF"/>
<path d="M15.0917 0.483154C15.9005 0.62846 16.7246 0.722602 17.52 0.919072C23.0037 2.27185 27.1604 6.91037 27.9332 12.5087C28.9616 19.9541 24.105 26.7599 16.7031 28.2365C16.1704 28.345 15.6234 28.4033 15.0845 28.4832H7.64465C7.64329 23.7924 7.64568 19.1051 7.65184 14.4212C7.65184 14.1091 7.6816 13.7889 7.73189 13.4839C8.21427 10.3353 11.0942 7.95821 14.2522 8.08101C17.5847 8.21915 20.2614 10.7855 20.4718 14.057C20.7858 18.9145 15.8266 22.3251 11.3856 20.3031C11.2781 20.2547 11.1685 20.211 11.0572 20.1721C11.0572 21.663 11.05 23.1027 11.0726 24.5415C11.0726 24.6295 11.2399 24.7605 11.3497 24.7891C12.7712 25.1964 14.2235 25.2772 15.6808 25.0449C21.8512 24.0554 25.8323 18.2166 24.4971 12.1526C23.2655 6.53995 17.636 2.86842 12.0271 4.00938C6.95188 5.02754 3.40795 9.3468 3.39358 14.5236C3.38537 19.0526 3.39358 23.5827 3.39358 28.1127C3.39358 28.2355 3.40795 28.3522 3.42232 28.476H0.0703125V13.4256C0.113419 13.1421 0.164736 12.8577 0.200658 12.5671C0.974513 6.91856 5.10858 2.29334 10.659 0.911909C11.4462 0.715439 12.256 0.621297 13.0504 0.483154H15.0917Z" fill="#BFBFBF"/>
</svg>
