<svg width="137" height="29" viewBox="0 0 137 29" fill="none" xmlns="http://www.w3.org/2000/svg">
<g clip-path="url(#clip0_1655_169)">
<path d="M41.4921 9.12839C39.7769 9.12839 38.9193 9.69287 38.9193 10.8218C38.9193 11.3236 39.1318 11.7078 39.5566 11.9743C39.9815 12.2409 40.9762 12.6262 42.5419 13.1268C44.1076 13.6286 45.2057 14.1975 45.8351 14.8314C46.4645 15.4665 46.7792 16.442 46.7792 17.7602C46.7792 19.438 46.2678 20.7081 45.245 21.5694C44.2211 22.4329 42.8847 22.863 41.2325 22.863C40.0051 22.863 38.5024 22.6748 36.7242 22.2985L35.8745 22.1338L36.205 19.6172C38.3135 19.9005 39.9264 20.0417 41.0436 20.0417C42.7116 20.0417 43.5456 19.3518 43.5456 17.9708C43.5456 17.4702 43.3534 17.077 42.9668 16.7948C42.5801 16.5126 41.8147 16.2068 40.666 15.8775C38.8407 15.3601 37.5537 14.7452 36.8063 14.0318C36.0588 13.3183 35.6846 12.3271 35.6846 11.0559C35.6846 9.45655 36.1724 8.26487 37.148 7.48087C38.1236 6.69687 39.4611 6.30487 41.1605 6.30487C42.325 6.30487 43.8041 6.46167 45.598 6.77527L46.4477 6.93991L46.1892 9.50583C43.9705 9.25495 42.4048 9.12839 41.4921 9.12839Z" fill="#BFBFBF"/>
<path d="M52.2791 22.5819H49.1162V6.11786H52.2791V15.4788L53.4828 15.2671L55.8195 10.8219H59.36L56.2916 16.3961L59.5253 22.5819H55.9612L53.5772 17.9955L52.2791 18.206V22.5819Z" fill="#BFBFBF"/>
<path d="M64.234 19.6071C64.6038 19.9286 65.1343 20.0898 65.8267 20.0898C67.2901 20.0898 68.5962 20.0428 69.7449 19.9487L70.4069 19.8781L70.4529 22.2066C68.6434 22.6457 67.0069 22.8652 65.5435 22.8652C63.7653 22.8652 62.475 22.3948 61.6725 21.454C60.87 20.5132 60.4688 18.9844 60.4688 16.8676C60.4688 12.6497 62.2075 10.5407 65.6851 10.5407C69.1154 10.5407 70.8306 12.3126 70.8306 15.8562L70.5957 18.0436H63.6552C63.6709 18.7638 63.8631 19.2857 64.234 19.6071ZM67.715 15.6434C67.715 14.7026 67.5655 14.0486 67.2665 13.6801C66.9675 13.3116 66.4438 13.1279 65.6974 13.1279C64.9489 13.1279 64.4229 13.3194 64.116 13.7036C63.8092 14.0878 63.6473 14.7351 63.6316 15.6434H67.715Z" fill="#BFBFBF"/>
<path d="M79.6354 13.5031H76.7322V18.3247C76.7322 18.7951 76.7446 19.1289 76.767 19.3249C76.7906 19.5209 76.8772 19.6889 77.0267 19.83C77.1762 19.9711 77.4077 20.0417 77.7224 20.0417L79.5163 19.9946L79.6579 22.5102C78.6036 22.7465 77.8022 22.863 77.2503 22.863C75.8342 22.863 74.8664 22.546 74.3471 21.9098C73.8279 21.2759 73.5682 20.1033 73.5682 18.393V13.5009H72.1768V10.8218H73.5682V7.55255H76.7311V10.8218H79.6343L79.6354 13.5031Z" fill="#BFBFBF"/>
<path d="M86.1025 10.5396C86.9219 10.5396 87.9672 10.6651 89.2429 10.9159L89.8791 11.0571L89.7846 13.5502C88.5415 13.4247 87.621 13.362 87.0231 13.362C85.9373 13.362 85.218 13.5939 84.8639 14.0564C84.5099 14.519 84.3323 15.3926 84.3323 16.6783C84.3323 17.9641 84.5087 18.8478 84.8639 19.3249C85.2168 19.8031 85.9452 20.0428 87.0467 20.0428L89.7846 19.8547L89.8791 22.3702C88.1954 22.7006 86.9129 22.8641 86.0317 22.8641C84.2851 22.8641 83.0296 22.3735 82.2664 21.3947C81.5032 20.4158 81.1211 18.8433 81.1211 16.6783C81.1211 14.5145 81.5145 12.951 82.3013 11.9867C83.088 11.0223 84.3559 10.5396 86.1025 10.5396Z" fill="#BFBFBF"/>
<path d="M95.3787 22.5819H92.2158V6.11786H95.3787V11.3863C96.4644 10.8219 97.44 10.5396 98.3055 10.5396C99.879 10.5396 100.965 11.0022 101.563 11.9273C102.16 12.8524 102.46 14.2793 102.46 16.2079V22.5819H99.2968V16.2785C99.2968 15.2907 99.1799 14.5582 98.9439 14.0799C98.7079 13.6017 98.2358 13.362 97.5277 13.362C96.914 13.362 96.2992 13.4561 95.6855 13.6443L95.3798 13.7383L95.3787 22.5819Z" fill="#BFBFBF"/>
<path d="M108.998 13.5031V22.5819H105.835V13.5031H104.561V10.8219H105.835V10.3055C105.835 8.61209 106.087 7.44393 106.59 6.80105C107.094 6.15817 107.991 5.83673 109.282 5.83673C109.849 5.83673 110.581 5.91513 111.477 6.07193L111.972 6.14249L111.925 8.70617C111.232 8.67481 110.65 8.65913 110.178 8.65913C109.706 8.65913 109.391 8.78457 109.234 9.03545C109.076 9.28633 108.998 9.71753 108.998 10.3291V10.823H111.854V13.5043H108.998V13.5031Z" fill="#BFBFBF"/>
<path d="M122.735 14.491V19.3831C122.766 19.7606 122.829 20.0227 122.924 20.1716C123.018 20.3206 123.215 20.427 123.514 20.4886L123.419 22.8641C122.617 22.8641 121.975 22.8092 121.495 22.7006C121.015 22.5897 120.532 22.3702 120.044 22.0409C118.911 22.5897 117.755 22.8641 116.575 22.8641C114.134 22.8641 112.916 21.5795 112.916 19.0068C112.916 17.7535 113.254 16.8631 113.93 16.3379C114.608 15.8126 115.645 15.5023 117.045 15.4083L119.571 15.2201V14.491C119.571 14.0049 119.46 13.6723 119.241 13.4908C119.02 13.3105 118.665 13.2209 118.178 13.2209L113.741 13.4091L113.647 11.2217C115.33 10.767 116.932 10.5396 118.449 10.5396C119.969 10.5396 121.061 10.8532 121.73 11.4804C122.401 12.1076 122.735 13.1123 122.735 14.491ZM117.424 17.5956C116.543 17.674 116.102 18.1444 116.102 19.0068C116.102 19.8703 116.488 20.3004 117.258 20.3004C117.856 20.3004 118.509 20.2063 119.217 20.0182L119.571 19.9241V17.4075L117.424 17.5956Z" fill="#BFBFBF"/>
<path d="M131.467 10.5396C133.119 10.5396 134.327 10.9899 135.091 11.8926C135.854 12.7953 136.236 14.4059 136.236 16.7265C136.236 19.046 135.795 20.6499 134.914 21.5358C134.033 22.4217 132.513 22.8652 130.359 22.8652C129.681 22.8652 128.447 22.7868 126.652 22.63L125.755 22.5359V6.11786H128.918V11.1747C129.925 10.7513 130.775 10.5396 131.467 10.5396ZM130.359 20.0428C131.413 20.0428 132.12 19.7875 132.483 19.2779C132.846 18.7683 133.025 17.8543 133.025 16.5372C133.025 14.4204 132.364 13.3631 131.042 13.3631C130.413 13.3631 129.815 13.4415 129.248 13.5983L128.918 13.6689V19.9487C129.642 20.0115 130.121 20.0428 130.359 20.0428Z" fill="#BFBFBF"/>
<path d="M14.5497 1.41614C7.30686 1.41614 1.4375 7.26702 1.4375 14.4832C1.4375 21.6993 7.30686 27.5502 14.5497 27.5502C21.7925 27.5502 27.663 21.6993 27.663 14.4832C27.663 7.26702 21.7925 1.41614 14.5497 1.41614Z" fill="black"/>
<path d="M14.5496 0.450684C6.78972 0.450684 0.5 6.71932 0.5 14.4518C0.5 22.1843 6.78972 28.4529 14.5496 28.4529C22.3095 28.4529 28.5992 22.1843 28.5992 14.4518C28.6003 6.71932 22.3106 0.450684 14.5496 0.450684ZM13.329 22.7835L7.2719 19.2992V12.27L13.329 15.5304V22.7835ZM14.408 13.8761L7.24155 10.0905L14.408 5.96668L21.5755 10.0905L14.408 13.8761ZM21.58 19.3126L15.5454 22.7846V15.5584L21.58 12.3092V19.3126Z" fill="#BFBFBF"/>
</g>
<defs>
<clipPath id="clip0_1655_169">
<rect width="136" height="28" fill="white" transform="translate(0.5 0.483154)"/>
</clipPath>
</defs>
</svg>
